<?xml version="1.0" encoding="UTF-8" standalone="no"?>
<svg
   width="40"
   height="40"
   viewBox="0 0 40 40"
   fill="none"
   version="1.1"
   id="svg3"
   sodipodi:docname="messagerie.svg"
   inkscape:version="1.3.2 (091e20ef0f, 2023-11-25, custom)"
   xmlns:inkscape="http://www.inkscape.org/namespaces/inkscape"
   xmlns:sodipodi="http://sodipodi.sourceforge.net/DTD/sodipodi-0.dtd"
   xmlns="http://www.w3.org/2000/svg"
   xmlns:svg="http://www.w3.org/2000/svg">
  <defs
     id="defs3" />
  <sodipodi:namedview
     id="namedview3"
     pagecolor="#ffffff"
     bordercolor="#666666"
     borderopacity="1.0"
     inkscape:showpageshadow="2"
     inkscape:pageopacity="0.0"
     inkscape:pagecheckerboard="0"
     inkscape:deskcolor="#d1d1d1"
     showgrid="false"
     inkscape:zoom="5.9"
     inkscape:cx="20"
     inkscape:cy="15"
     inkscape:window-width="1914"
     inkscape:window-height="1046"
     inkscape:window-x="0"
     inkscape:window-y="0"
     inkscape:window-maximized="0"
     inkscape:current-layer="svg3" />
  <path
     fill-rule="evenodd"
     clip-rule="evenodd"
     d="m 1.7667,33.632276 16.93725,-13.5675 c 1.0027,-0.8048 0.9549,-1.6848 -0.3001,-2.5989 L 2.51022,5.9447769 C 0.150201,4.2327279 5e-5,5.8287509 5e-5,6.9339959 V 32.963876 c 0,1.3232 0.463897,1.712 1.76665,0.6684 z"
     fill="#000091"
     id="path1" />
  <path
     fill-rule="evenodd"
     clip-rule="evenodd"
     d="M 38.45845,6.4703559 12.68775,27.377476 c -0.764,0.6139 -0.7162,0.9208 -0.0273,1.371 l 5.4025,3.554 c 1.6233,1.0641 2.7761,0.6889 4.1405,-0.4161 l 16.7872,-13.5949 c 0.8183,-0.6684 1.0026,-0.989 0.989,-2.1281 l -0.157,-9.3929301 c -0.0137,-1.098206 -0.3411,-1.125504 -1.3642,-0.30009 z"
     fill="#e1000f"
     id="path2" />
  <path
     fill-rule="evenodd"
     clip-rule="evenodd"
     d="m 39.35195,20.460676 -7.94,6.2891 c -0.9824,0.7777 -1.0914,0.8323 -0.0682,1.6236 l 7.7489,5.9754 c 0.7572,0.5867 0.9073,0.7298 0.9073,-0.2933 v -13.2811 c 0,-0.6957 -0.0614,-0.7774 -0.648,-0.3137 z"
     fill="#e1000f"
     id="path3" />
</svg>
